<svg width="1200" height="720" viewBox="0 0 1200 720" fill="none" xmlns="http://www.w3.org/2000/svg">
  <rect width="1200" height="720" fill="#0F151C"/>
  <rect x="70" y="80" width="1060" height="560" rx="28" fill="#16202A" stroke="#CDA15C" stroke-opacity="0.28"/>
  <rect x="160" y="210" width="420" height="280" rx="22" fill="#101820" stroke="#EAF0F7" stroke-opacity="0.12"/>
  <rect x="230" y="270" width="280" height="18" rx="9" fill="#CDA15C" fill-opacity="0.8"/>
  <rect x="230" y="320" width="210" height="14" rx="7" fill="#EAF0F7" fill-opacity="0.18"/>
  <rect x="230" y="358" width="240" height="14" rx="7" fill="#EAF0F7" fill-opacity="0.18"/>
  <rect x="230" y="396" width="180" height="14" rx="7" fill="#EAF0F7" fill-opacity="0.18"/>
  <path d="M660 260C720 220 780 220 840 260C900 300 960 300 1020 260" stroke="#CDA15C" stroke-width="8" stroke-linecap="round"/>
  <path d="M660 370C720 330 780 330 840 370C900 410 960 410 1020 370" stroke="#EAF0F7" stroke-opacity="0.2" stroke-width="8" stroke-linecap="round"/>
  <path d="M660 480C720 440 780 440 840 480C900 520 960 520 1020 480" stroke="#EAF0F7" stroke-opacity="0.2" stroke-width="8" stroke-linecap="round"/>
  <text x="160" y="160" fill="#EAF0F7" font-family="Inter, Arial, sans-serif" font-size="48" font-weight="700">CRM as Management System</text>
  <text x="160" y="214" fill="#AEB8C6" font-family="Inter, Arial, sans-serif" font-size="28">Visibility • Ownership • Follow-through</text>
</svg>
